<svg width="500" height="500" viewBox="0 0 500 500" fill="none" xmlns="http://www.w3.org/2000/svg">
<g clip-path="url(#clip0_101_2)">
<rect width="500" height="500" fill="#616161"/>
<path d="M222 375L178.5 280C167.5 256.333 153.667 239.5 137 229.5C120.333 219.5 99 214.5 73 214.5H65.5V369H18V20C36 18.3333 52.8333 17.1667 68.5 16.5C84.5 15.5 101.833 15 120.5 15C141.833 15 160.5 17.3333 176.5 22C192.5 26.3333 205.833 32.6666 216.5 41C227.167 49.3333 235.167 59.1667 240.5 70.5C246.167 81.8333 249 94.3333 249 108C249 132.333 241.667 152 227 167C212.667 181.667 191.833 192.667 164.5 200C171.167 203 177.333 206.5 183 210.5C188.667 214.167 194 218.833 199 224.5C204 229.833 208.833 236.333 213.5 244C218.5 251.667 223.5 261 228.5 272L266.5 354L222 375ZM120.5 55C109.167 55 99 55.1667 90 55.5C81 55.8333 72.8333 56.3333 65.5 57V174.5H120.5C144.5 174.5 164 169.167 179 158.5C194 147.833 201.5 132.5 201.5 112.5C201.5 95.8333 194.5 82.1667 180.5 71.5C166.5 60.5 146.5 55 120.5 55Z" fill="#EAEAEA"/>
<path d="M297 374.7C297 359.3 299.2 345 303.6 331.8C308.2 318.6 314.7 307.2 323.1 297.6C331.7 287.8 342.1 280.2 354.3 274.8C366.5 269.2 380.4 266.4 396 266.4C411.4 266.4 425.2 269.3 437.4 275.1C449.8 280.7 460.2 288.4 468.6 298.2C477.2 308 483.8 319.5 488.4 332.7C493 345.7 495.3 359.7 495.3 374.7C495.3 389.7 493 403.8 488.4 417C484 430.2 477.5 441.8 468.9 451.8C460.3 461.6 449.9 469.4 437.7 475.2C425.5 480.8 411.6 483.6 396 483.6C380.4 483.6 366.5 480.8 354.3 475.2C342.1 469.4 331.7 461.6 323.1 451.8C314.7 441.8 308.2 430.2 303.6 417C299.2 403.8 297 389.7 297 374.7ZM326.1 374.7C326.1 385.5 327.6 396 330.6 406.2C333.8 416.4 338.4 425.4 344.4 433.2C350.4 441 357.7 447.3 366.3 452.1C375.1 456.7 385 459 396 459C407.6 459 417.7 456.9 426.3 452.7C435.1 448.3 442.4 442.4 448.2 435C454.2 427.4 458.7 418.5 461.7 408.3C464.7 397.9 466.2 386.7 466.2 374.7C466.2 363.9 464.6 353.5 461.4 343.5C458.2 333.5 453.6 324.6 447.6 316.8C441.6 309 434.2 302.8 425.4 298.2C416.8 293.4 407 291 396 291C385 291 375.1 293.2 366.3 297.6C357.7 301.8 350.4 307.7 344.4 315.3C338.4 322.7 333.8 331.5 330.6 341.7C327.6 351.9 326.1 362.9 326.1 374.7Z" fill="#A4A4A4"/>
</g>
<defs>
<clipPath id="clip0_101_2">
<rect width="500" height="500" fill="white"/>
</clipPath>
</defs>
</svg>
